# xmcd
#
# Track frame offsets:
#	183
#	14383
#	28008
#	41683
#	54433
#	65708
#	76283
#	87958
#	99233
#	109458
#	120158
#	131458
#	145608
#	157108
#	170033
#	180633
#
# Disc length: 2560 seconds
#
# Revision: 0
# Processed by: cddbd v1.5.2PL0 Copyright (c) Steve Scherf et al.
# Submitted via: dBpowerAMP V4.0
#
DISCID=d109fe10
DTITLE=Ben E. King - Greatest Hits
DYEAR=1995
DGENRE=Soul
TTITLE0=Amor
TTITLE1=Spanish Harlem
TTITLE2=Stand By Me
TTITLE3=Don't Play That Song
TTITLE4=I (Who Have Nothing)
TTITLE5=Young Boy Blues
TTITLE6=I Could Have Danced All Night
TTITLE7=Save The Last Dance For Me
TTITLE8=I Count The Tears
TTITLE9=Here Comes The Night
TTITLE10=This Magic Moment
TTITLE11=That's When It Hurts
TTITLE12=The Record (Baby I Love You)
TTITLE13=Seven Letters
TTITLE14=First Taste Of Love
TTITLE15=Ecstasy
EXTD=
EXTT0=
EXTT1=
EXTT2=
EXTT3=
EXTT4=
EXTT5=
EXTT6=
EXTT7=
EXTT8=
EXTT9=
EXTT10=
EXTT11=
EXTT12=
EXTT13=
EXTT14=
EXTT15=
PLAYORDER=
